<svg width="27" height="26" viewBox="0 0 27 26" fill="none" xmlns="http://www.w3.org/2000/svg">
<g id="photo">
<mask id="mask0_144_1914" style="mask-type:alpha" maskUnits="userSpaceOnUse" x="0" y="0" width="27" height="26">
<rect id="Bounding box" x="0.5" width="26" height="26" fill="#D9D9D9"/>
</mask>
<g mask="url(#mask0_144_1914)">
<path id="photo_2" d="M5.91667 22.75C5.32083 22.75 4.81076 22.5378 4.38646 22.1135C3.96215 21.6892 3.75 21.1792 3.75 20.5833V5.41667C3.75 4.82083 3.96215 4.31076 4.38646 3.88646C4.81076 3.46215 5.32083 3.25 5.91667 3.25H21.0833C21.6792 3.25 22.1892 3.46215 22.6135 3.88646C23.0378 4.31076 23.25 4.82083 23.25 5.41667V20.5833C23.25 21.1792 23.0378 21.6892 22.6135 22.1135C22.1892 22.5378 21.6792 22.75 21.0833 22.75H5.91667ZM5.91667 20.5833H21.0833V5.41667H5.91667V20.5833ZM7 18.4167H20L15.9375 13L12.6875 17.3333L10.25 14.0833L7 18.4167Z" fill="#1C1B1F"/>
</g>
</g>
</svg>
