<svg width="24" height="25" viewBox="0 0 24 25" fill="none" xmlns="http://www.w3.org/2000/svg">
<g id="vuesax/linear/setting-2">
<g id="vuesax/linear/setting-2_2">
<g id="setting-2">
<path id="Vector" fill-rule="evenodd" clip-rule="evenodd" d="M12 15.3549C10.3431 15.3549 9 14.0117 9 12.3549C9 10.698 10.3431 9.35486 12 9.35486C13.6569 9.35486 15 10.698 15 12.3549C15 14.0117 13.6569 15.3549 12 15.3549Z" stroke="#828282" stroke-width="1.5" stroke-linecap="round" stroke-linejoin="round"/>
<path id="Vector_2" d="M2 11.4748C2 10.4348 2.85 9.5748 3.9 9.5748C5.71 9.5748 6.45 8.29479 5.54 6.72479C5.02 5.82479 5.33 4.65479 6.24 4.13479L7.97 3.14479C8.76 2.67479 9.78 2.95479 10.25 3.74479L10.36 3.93479C11.26 5.50479 12.74 5.50479 13.65 3.93479L13.76 3.74479C14.23 2.95479 15.25 2.67479 16.04 3.14479L17.77 4.13479C18.68 4.65479 18.99 5.82479 18.47 6.72479C17.56 8.29479 18.3 9.5748 20.11 9.5748C21.15 9.5748 22.01 10.4248 22.01 11.4748V13.2348C22.01 14.2748 21.16 15.1348 20.11 15.1348C18.3 15.1348 17.56 16.4148 18.47 17.9848C18.99 18.8948 18.68 20.0548 17.77 20.5748L16.04 21.5648C15.25 22.0348 14.23 21.7548 13.76 20.9648L13.65 20.7748C12.75 19.2048 11.27 19.2048 10.36 20.7748L10.25 20.9648C9.78 21.7548 8.76 22.0348 7.97 21.5648L6.24 20.5748C5.33 20.0548 5.02 18.8848 5.54 17.9848C6.45 16.4148 5.71 15.1348 3.9 15.1348C2.85 15.1348 2 14.2748 2 13.2348V11.4748Z" stroke="#828282" stroke-width="1.5" stroke-linecap="round" stroke-linejoin="round"/>
</g>
</g>
</g>
</svg>
